<svg width="18" height="16" viewBox="0 0 18 16" fill="none" xmlns="http://www.w3.org/2000/svg">
<path d="M11.0772 14.4854C13.0384 12.9779 15.8684 10.6178 17.0478 8.73022C17.9302 7.32005 18.2173 5.57297 17.8335 3.94857C17.0134 0.248319 12.4723 -1.26369 9.64368 1.21599C9.48459 1.35453 9.33794 1.50812 9.18741 1.66582C9.126 1.73018 9.06388 1.79522 9 1.86021C8.93612 1.79522 8.874 1.73017 8.81259 1.66581C8.66206 1.50812 8.51541 1.35453 8.35633 1.21599C5.52768 -1.26369 0.986566 0.248319 0.166498 3.94857C-0.217326 5.57297 0.0697656 7.32005 0.952242 8.73022C2.13158 10.6178 4.96165 12.9779 6.92277 14.4854C7.46921 14.9056 9 16 9 16C9 16 10.5308 14.9056 11.0772 14.4854Z" fill="#9B6D97"/>
</svg>
